<svg width="22" height="20" viewBox="0 0 22 20" fill="none" xmlns="http://www.w3.org/2000/svg">
<path d="M20.7273 2.54545H16.7273V0H15.2727V2.54545H6.54545V0H5.09091V2.54545H1.09091C0.801685 2.54579 0.524404 2.66083 0.319892 2.86535C0.11538 3.06986 0.000336839 3.34714 0 3.63636V18.9091C0.000336839 19.1983 0.11538 19.4756 0.319892 19.6801C0.524404 19.8846 0.801685 19.9997 1.09091 20H20.7273C21.0165 19.9997 21.2938 19.8846 21.4983 19.6801C21.7028 19.4756 21.8178 19.1983 21.8182 18.9091V3.63636C21.8178 3.34714 21.7028 3.06986 21.4983 2.86535C21.2938 2.66083 21.0165 2.54579 20.7273 2.54545ZM20.3636 18.5455H1.45455V4H5.09091V5.81818H6.54545V4H15.2727V5.81818H16.7273V4H20.3636V18.5455Z" fill="white"/>
<path d="M5.81819 8.36365H4.36365V9.81819H5.81819V8.36365Z" fill="white"/>
<path d="M9.81819 8.36365H8.36365V9.81819H9.81819V8.36365Z" fill="white"/>
<path d="M13.4545 8.36365H12V9.81819H13.4545V8.36365Z" fill="white"/>
<path d="M17.4545 8.36365H16V9.81819H17.4545V8.36365Z" fill="white"/>
<path d="M5.81819 11.6364H4.36365V13.0909H5.81819V11.6364Z" fill="white"/>
<path d="M9.81819 11.6364H8.36365V13.0909H9.81819V11.6364Z" fill="white"/>
<path d="M13.4545 11.6364H12V13.0909H13.4545V11.6364Z" fill="white"/>
<path d="M17.4545 11.6364H16V13.0909H17.4545V11.6364Z" fill="white"/>
<path d="M5.81819 14.9091H4.36365V16.3636H5.81819V14.9091Z" fill="white"/>
<path d="M9.81819 14.9091H8.36365V16.3636H9.81819V14.9091Z" fill="white"/>
<path d="M13.4545 14.9091H12V16.3636H13.4545V14.9091Z" fill="white"/>
<path d="M17.4545 14.9091H16V16.3636H17.4545V14.9091Z" fill="white"/>
</svg>
