<svg width="24" height="25" viewBox="0 0 24 25" fill="none" xmlns="http://www.w3.org/2000/svg">
<g clip-path="url(#clip0_1_363)">
<path d="M12 22.9166C13.1 22.9166 14 21.9791 14 20.8333H10C10 21.9791 10.9 22.9166 12 22.9166ZM18 16.6666V11.4583C18 8.26038 16.37 5.58329 13.5 4.87496V4.16663C13.5 3.30204 12.83 2.60413 12 2.60413C11.17 2.60413 10.5 3.30204 10.5 4.16663V4.87496C7.64 5.58329 6 8.24996 6 11.4583V16.6666L4 18.75V19.7916H20V18.75L18 16.6666ZM16 17.7083H8V11.4583C8 8.87496 9.51 6.77079 12 6.77079C14.49 6.77079 16 8.87496 16 11.4583V17.7083Z" fill="#C0C0C0"/>
</g>
<defs>
<clipPath id="clip0_1_363">
<rect width="24" height="25" fill="white"/>
</clipPath>
</defs>
</svg>
