<svg width="20" height="20" viewBox="0 0 20 20" fill="none" xmlns="http://www.w3.org/2000/svg">
<path d="M17.0711 2.92893C15.1957 1.05357 12.6522 0 10 0C7.34784 0 4.8043 1.05357 2.92893 2.92893C1.05357 4.8043 0 7.34784 0 10C0 12.6522 1.05357 15.1957 2.92893 17.0711C4.8043 18.9464 7.34784 20 10 20C12.6522 20 15.1957 18.9464 17.0711 17.0711C18.9464 15.1957 20 12.6522 20 10C20 7.34784 18.9464 4.8043 17.0711 2.92893ZM10 18.6597C5.22514 18.6597 1.34033 14.7749 1.34033 10C1.34033 5.22505 5.22505 1.34033 10 1.34033C14.7749 1.34033 18.6597 5.22505 18.6597 10C18.6597 14.7749 14.7749 18.6597 10 18.6597Z" fill="#C0C0C0"/>
</svg>
