<svg width="24" height="24" viewBox="0 0 24 24" fill="none" xmlns="http://www.w3.org/2000/svg">
<path d="M24 2.47254H9.33331V4.1209H24V2.47254Z" fill="#C0C0C0"/>
<path d="M0 3.29671C0 3.94874 0.20853 4.58613 0.599221 5.12827C0.989911 5.67041 1.54521 6.09296 2.19491 6.34248C2.8446 6.592 3.55951 6.65728 4.24922 6.53008C4.93893 6.40287 5.57247 6.08889 6.06973 5.62784C6.56698 5.16679 6.90562 4.57937 7.04281 3.93987C7.18 3.30037 7.10959 2.63751 6.84048 2.03511C6.57136 1.43272 6.11564 0.917844 5.53093 0.555596C4.94622 0.193349 4.25879 0 3.55556 0C2.61289 0.000981641 1.70914 0.348628 1.04257 0.966669C0.376002 1.58471 0.00105872 2.42267 0 3.29671ZM3.55556 1.64836C3.90718 1.64836 4.25089 1.74503 4.54325 1.92615C4.8356 2.10728 5.06346 2.36472 5.19802 2.66591C5.33258 2.96711 5.36778 3.29854 5.29919 3.61829C5.23059 3.93804 5.06127 4.23175 4.81265 4.46228C4.56402 4.6928 4.24725 4.84979 3.90239 4.9134C3.55754 4.977 3.20008 4.94435 2.87524 4.81959C2.55039 4.69483 2.27274 4.48356 2.07739 4.21249C1.88205 3.94142 1.77778 3.62273 1.77778 3.29671C1.77831 2.85969 1.96578 2.44071 2.29907 2.13169C2.63235 1.82267 3.08423 1.64885 3.55556 1.64836Z" fill="#C0C0C0"/>
<path d="M24 10.7143H9.33331V12.3626H24V10.7143Z" fill="#C0C0C0"/>
<path d="M3.55556 14.8351C4.25879 14.8351 4.94622 14.6418 5.53093 14.2795C6.11564 13.9173 6.57136 13.4024 6.84048 12.8C7.10959 12.1976 7.18 11.5348 7.04281 10.8953C6.90562 10.2558 6.56698 9.66836 6.06973 9.20731C5.57247 8.74625 4.93893 8.43227 4.24922 8.30507C3.55951 8.17786 2.8446 8.24315 2.19491 8.49267C1.54521 8.74219 0.989911 9.16474 0.599221 9.70688C0.20853 10.249 0 10.8864 0 11.5384C0.00105872 12.4125 0.376002 13.2504 1.04257 13.8685C1.70914 14.4865 2.61289 14.8342 3.55556 14.8351ZM3.55556 9.89008C3.90718 9.89008 4.25089 9.98675 4.54325 10.1679C4.8356 10.349 5.06346 10.6064 5.19802 10.9076C5.33258 11.2088 5.36778 11.5403 5.29919 11.86C5.23059 12.1798 5.06127 12.4735 4.81265 12.704C4.56402 12.9345 4.24725 13.0915 3.90239 13.1551C3.55754 13.2187 3.20008 13.1861 2.87524 13.0613C2.55039 12.9366 2.27274 12.7253 2.07739 12.4542C1.88205 12.1831 1.77778 11.8644 1.77778 11.5384C1.77831 11.1014 1.96578 10.6824 2.29907 10.3734C2.63235 10.0644 3.08423 9.89057 3.55556 9.89008Z" fill="#C0C0C0"/>
<path d="M24 18.9561H9.33331V20.6045H24V18.9561Z" fill="#C0C0C0"/>
<path d="M3.55556 23.077C4.25879 23.077 4.94622 22.8836 5.53093 22.5214C6.11564 22.1591 6.57136 21.6443 6.84048 21.0419C7.10959 20.4395 7.18 19.7766 7.04281 19.1371C6.90562 18.4976 6.56698 17.9102 6.06973 17.4491C5.57247 16.9881 4.93893 16.6741 4.24922 16.5469C3.55951 16.4197 2.8446 16.485 2.19491 16.7345C1.54521 16.984 0.989911 17.4066 0.599221 17.9487C0.20853 18.4909 0 19.1282 0 19.7803C0.00105872 20.6543 0.376002 21.4923 1.04257 22.1103C1.70914 22.7284 2.61289 23.076 3.55556 23.077ZM3.55556 18.1319C3.90718 18.1319 4.25089 18.2286 4.54325 18.4097C4.8356 18.5908 5.06346 18.8483 5.19802 19.1495C5.33258 19.4507 5.36778 19.7821 5.29919 20.1019C5.23059 20.4216 5.06127 20.7153 4.81265 20.9458C4.56402 21.1764 4.24725 21.3334 3.90239 21.397C3.55754 21.4606 3.20008 21.4279 2.87524 21.3032C2.55039 21.1784 2.27274 20.9671 2.07739 20.6961C1.88205 20.425 1.77778 20.1063 1.77778 19.7803C1.77831 19.3433 1.96578 18.9243 2.29907 18.6153C2.63235 18.3062 3.08423 18.1324 3.55556 18.1319Z" fill="#C0C0C0"/>
</svg>
